<?xml version="1.0" encoding="utf-8"?>
<!-- Generator: Adobe Illustrator 19.0.0, SVG Export Plug-In . SVG Version: 6.00 Build 0)  -->
<svg version="1.1" id="Layer_1" xmlns="http://www.w3.org/2000/svg" xmlns:xlink="http://www.w3.org/1999/xlink" x="0px" y="0px"
	 viewBox="0 0 998.5 431.9" style="enable-background:new 0 0 998.5 431.9;" xml:space="preserve">
<style type="text/css">
	.st0{font-family:'ProximaNova-Black';}
	.st1{font-size:156.7291px;}
	.st2{font-size:313.4582px;}
	.st3{fill:none;stroke:#AC0033;stroke-width:19.7506;stroke-linecap:round;stroke-miterlimit:10;}
	.st4{fill:none;stroke:#FF495C;stroke-width:19.7506;stroke-linecap:round;stroke-miterlimit:10;}
	.st5{fill:none;stroke:#ED1C24;stroke-width:19.7506;stroke-linecap:round;stroke-miterlimit:10;}
	.st6{fill:none;stroke:#0069A6;stroke-width:19.7506;stroke-linecap:round;stroke-miterlimit:10;}
	.st7{fill:none;stroke:#00AEEF;stroke-width:19.7506;stroke-linecap:round;stroke-miterlimit:10;}
	.st8{fill:none;stroke:#7DDBD4;stroke-width:19.7506;stroke-linecap:round;stroke-miterlimit:10;}
	.st9{fill:none;stroke:#E73E51;stroke-width:19.7506;stroke-linecap:round;stroke-miterlimit:10;}
	.st10{fill:none;stroke:#BE1E2D;stroke-width:19.7506;stroke-linecap:round;stroke-miterlimit:10;}
	.st11{stroke:#FFFFFF;stroke-width:7.9002;stroke-miterlimit:10;}
</style>
<text id="XMLID_1227_" transform="matrix(1 0 0 1 529.5258 130.633)"><tspan x="0" y="0" class="st0 st1">RESU-</tspan><tspan x="0" y="235.5" class="st0 st2">ME</tspan></text>
<g id="XMLID_1201_">
	<line id="XMLID_1226_" class="st3" x1="312.7" y1="34.2" x2="312.7" y2="237.6"/>
	<line id="XMLID_1225_" class="st4" x1="22.1" y1="34.2" x2="312.7" y2="34.2"/>
	<line id="XMLID_1224_" class="st5" x1="312.7" y1="237.6" x2="21.7" y2="237.6"/>
	<line id="XMLID_1223_" class="st6" x1="458.2" y1="34.2" x2="458.2" y2="339.3"/>
	<polyline id="XMLID_1222_" class="st7" points="165.2,34.2 312.7,237.6 458.2,34.2 	"/>
	<line id="XMLID_1221_" class="st8" x1="165.2" y1="339.3" x2="165.2" y2="34.2"/>
	<line id="XMLID_1220_" class="st9" x1="318" y1="339.3" x2="169.4" y2="238.9"/>
	<path id="XMLID_1219_" class="st5" d="M312.7,237.6"/>
	<line id="XMLID_1218_" class="st10" x1="22.1" y1="339.3" x2="22.1" y2="34.2"/>
	<circle id="XMLID_1217_" class="st11" cx="21.7" cy="339.3" r="17.8"/>
	<circle id="XMLID_1216_" class="st11" cx="167.2" cy="339.3" r="17.8"/>
	<circle id="XMLID_1215_" class="st11" cx="312.7" cy="339.3" r="17.8"/>
	<circle id="XMLID_1214_" class="st11" cx="458.2" cy="339.3" r="17.8"/>
	<circle id="XMLID_1213_" class="st11" cx="21.7" cy="237.6" r="17.8"/>
	<circle id="XMLID_1212_" class="st11" cx="167.2" cy="237.6" r="17.8"/>
	<circle id="XMLID_1211_" class="st11" cx="312.7" cy="237.6" r="17.8"/>
	<circle id="XMLID_1210_" class="st11" cx="458.2" cy="237.6" r="17.8"/>
	<circle id="XMLID_1209_" class="st11" cx="21.7" cy="135.9" r="17.8"/>
	<circle id="XMLID_1208_" class="st11" cx="167.2" cy="135.9" r="17.8"/>
	<circle id="XMLID_1207_" class="st11" cx="312.7" cy="135.9" r="17.8"/>
	<circle id="XMLID_1206_" class="st11" cx="458.2" cy="135.9" r="17.8"/>
	<circle id="XMLID_1205_" class="st11" cx="21.7" cy="34.2" r="17.8"/>
	<circle id="XMLID_1204_" class="st11" cx="167.2" cy="34.2" r="17.8"/>
	<circle id="XMLID_1203_" class="st11" cx="312.7" cy="34.2" r="17.8"/>
	<circle id="XMLID_1202_" class="st11" cx="458.2" cy="34.2" r="17.8"/>
</g>
</svg>
