<?xml version="1.0" encoding="utf-8"?>
<!-- Generator: Adobe Illustrator 19.0.0, SVG Export Plug-In . SVG Version: 6.00 Build 0)  -->
<svg version="1.1" id="Layer_1" xmlns="http://www.w3.org/2000/svg" xmlns:xlink="http://www.w3.org/1999/xlink" x="0px" y="0px"
	 viewBox="0 0 603.2 1015" style="enable-background:new 0 0 603.2 1015;" xml:space="preserve">
<style type="text/css">
	.st0{fill:none;stroke:#AC0033;stroke-width:24.0407;stroke-linecap:round;stroke-miterlimit:10;}
	.st1{fill:none;stroke:#FF495C;stroke-width:24.0407;stroke-linecap:round;stroke-miterlimit:10;}
	.st2{fill:none;stroke:#ED1C24;stroke-width:24.0407;stroke-linecap:round;stroke-miterlimit:10;}
	.st3{fill:none;stroke:#0069A6;stroke-width:24.0407;stroke-linecap:round;stroke-miterlimit:10;}
	.st4{fill:none;stroke:#00AEEF;stroke-width:24.0407;stroke-linecap:round;stroke-miterlimit:10;}
	.st5{fill:none;stroke:#7DDBD4;stroke-width:24.0407;stroke-linecap:round;stroke-miterlimit:10;}
	.st6{fill:none;stroke:#E73E51;stroke-width:24.0407;stroke-linecap:round;stroke-miterlimit:10;}
	.st7{fill:none;stroke:#BE1E2D;stroke-width:24.0407;stroke-linecap:round;stroke-miterlimit:10;}
	.st8{font-family:'ProximaNova-Black';}
	.st9{font-size:201.6045px;}
	.st10{font-size:403.2089px;}
	.st11{stroke:#FFFFFF;stroke-width:9.6163;stroke-miterlimit:10;}
</style>
<line id="XMLID_1108_" class="st0" x1="392.7" y1="26.4" x2="392.7" y2="274.1"/>
<line id="XMLID_1107_" class="st1" x1="38.9" y1="26.4" x2="392.7" y2="26.4"/>
<line id="XMLID_1106_" class="st2" x1="392.7" y1="274.1" x2="38.5" y2="274.1"/>
<line id="XMLID_1105_" class="st3" x1="569.8" y1="26.4" x2="569.8" y2="397.9"/>
<polyline id="XMLID_1104_" class="st4" points="213.2,26.4 392.7,274.1 569.8,26.4 "/>
<line id="XMLID_1103_" class="st5" x1="213.2" y1="397.9" x2="213.2" y2="26.4"/>
<line id="XMLID_1102_" class="st6" x1="399.1" y1="397.9" x2="218.2" y2="275.7"/>
<path id="XMLID_1101_" class="st2" d="M392.7,274.1"/>
<line id="XMLID_1100_" class="st7" x1="38.9" y1="397.9" x2="38.9" y2="26.4"/>
<text id="XMLID_1099_" transform="matrix(1 0 0 1 0 627.4258)"><tspan x="0" y="0" class="st8 st9">RESU-</tspan><tspan x="0" y="302.9" class="st8 st10">ME</tspan></text>
<circle id="XMLID_1098_" class="st11" cx="38.5" cy="397.9" r="21.6"/>
<circle id="XMLID_1097_" class="st11" cx="215.6" cy="397.9" r="21.6"/>
<circle id="XMLID_1096_" class="st11" cx="392.7" cy="397.9" r="21.6"/>
<circle id="XMLID_1095_" class="st11" cx="569.8" cy="397.9" r="21.6"/>
<circle id="XMLID_1094_" class="st11" cx="38.5" cy="274.1" r="21.6"/>
<circle id="XMLID_1093_" class="st11" cx="215.6" cy="274.1" r="21.6"/>
<circle id="XMLID_1092_" class="st11" cx="392.7" cy="274.1" r="21.6"/>
<circle id="XMLID_1091_" class="st11" cx="569.8" cy="274.1" r="21.6"/>
<circle id="XMLID_1090_" class="st11" cx="38.5" cy="150.3" r="21.6"/>
<circle id="XMLID_1089_" class="st11" cx="215.6" cy="150.3" r="21.6"/>
<circle id="XMLID_1088_" class="st11" cx="392.7" cy="150.3" r="21.6"/>
<circle id="XMLID_1087_" class="st11" cx="569.8" cy="150.3" r="21.6"/>
<circle id="XMLID_1086_" class="st11" cx="38.5" cy="26.4" r="21.6"/>
<circle id="XMLID_1085_" class="st11" cx="215.6" cy="26.4" r="21.6"/>
<circle id="XMLID_1084_" class="st11" cx="392.7" cy="26.4" r="21.6"/>
<circle id="XMLID_1083_" class="st11" cx="569.8" cy="26.4" r="21.6"/>
</svg>
